<svg width="26" height="26" viewBox="0 0 26 26" fill="none" xmlns="http://www.w3.org/2000/svg">
<g clip-path="url(#clip0_111_47)">
<g clip-path="url(#clip1_111_47)">
<path d="M14.9141 15.58C14.7537 15.6191 14.5923 15.6538 14.4301 15.684C13.5495 15.8498 12.6454 15.8464 11.7661 15.674C11.6121 15.644 11.3941 15.591 11.1131 15.516L10.1921 16.713C7.91906 16.64 7.05506 15.117 7.05506 15.117C7.05506 11.736 8.53606 8.995 8.53606 8.995C10.0171 7.862 11.4261 7.893 11.4261 7.893L11.8291 8.418C11.8662 8.41279 11.9036 8.40946 11.9411 8.408C12.7093 8.30617 13.4878 8.30954 14.2551 8.418L14.6971 7.893C14.6971 7.893 16.1071 7.862 17.5871 8.996C17.5871 8.996 19.0691 11.736 19.0691 15.117C19.0691 15.117 18.1941 16.639 15.9211 16.713L14.9141 15.579V15.58ZM11.0761 12C10.4751 12 10.0001 12.45 10.0001 13C10.0001 13.55 10.4851 14 11.0761 14C11.6761 14 12.1511 13.55 12.1511 13C12.1611 12.45 11.6771 12 11.0761 12ZM14.9241 12C14.3241 12 13.8491 12.45 13.8491 13C13.8491 13.55 14.3341 14 14.9241 14C15.5251 14 16.0001 13.55 16.0001 13C16.0001 12.45 15.5251 12 14.9241 12ZM22.0001 24L17.0101 19H20.0001V5H6.00006V19H17.0031L17.5731 21H6.00006C5.46963 21 4.96092 20.7893 4.58585 20.4142C4.21077 20.0391 4.00006 19.5304 4.00006 19V5C4.00006 4.46957 4.21077 3.96086 4.58585 3.58579C4.96092 3.21071 5.46963 3 6.00006 3H20.0001C20.5305 3 21.0392 3.21071 21.4143 3.58579C21.7893 3.96086 22.0001 4.46957 22.0001 5V24Z" fill="white"/>
</g>
</g>
<defs>
<clipPath id="clip0_111_47">
<rect width="26" height="26" fill="white"/>
</clipPath>
<clipPath id="clip1_111_47">
<rect width="24" height="24" fill="white" transform="translate(1.00006 1)"/>
</clipPath>
</defs>
</svg>
