<svg width="24" height="24" viewBox="0 0 24 24" fill="none" xmlns="http://www.w3.org/2000/svg">
<g clip-path="url(#clip0_111_55)">
<path d="M15.2997 5.55011C14.5397 5.54999 13.81 5.84824 13.2676 6.38068C12.7253 6.91313 12.4136 7.63721 12.3997 8.39711L12.3717 9.97211C12.3701 10.0567 12.3506 10.1399 12.3145 10.2164C12.2784 10.2929 12.2266 10.3609 12.1624 10.416C12.0981 10.471 12.023 10.5119 11.9419 10.5359C11.8608 10.5599 11.7755 10.5664 11.6917 10.5551L10.1307 10.3431C8.07671 10.0631 6.10871 9.11711 4.22071 7.54411C3.62271 10.8541 4.79071 13.1471 7.60371 14.9161L9.35071 16.0141C9.43372 16.0663 9.50268 16.138 9.55156 16.223C9.60044 16.308 9.62775 16.4036 9.63111 16.5016C9.63446 16.5996 9.61376 16.6969 9.57081 16.785C9.52785 16.8731 9.46396 16.9494 9.38471 17.0071L7.79271 18.1701C8.73971 18.2291 9.63871 18.1871 10.3847 18.0391C15.1027 17.0971 18.2397 13.5471 18.2397 7.69111C18.2397 7.21311 17.2277 5.55011 15.2997 5.55011ZM10.3997 8.36011C10.4172 7.39616 10.7186 6.45878 11.2663 5.66534C11.8139 4.87189 12.5835 4.25763 13.4786 3.89948C14.3737 3.54133 15.3546 3.45519 16.2985 3.65186C17.2423 3.84853 18.1071 4.31926 18.7847 5.00511C19.4957 5.00011 20.1007 5.18011 21.4537 4.36011C21.1187 6.00011 20.9537 6.71211 20.2397 7.69111C20.2397 15.3331 15.5427 19.0491 10.7767 20.0001C7.50871 20.6521 2.75671 19.5811 1.39471 18.1591C2.08871 18.1051 4.90871 17.8021 6.53871 16.6091C5.15971 15.7001 -0.329286 12.4701 3.27771 3.78611C4.97071 5.76311 6.68771 7.10911 8.42771 7.82311C9.58571 8.29811 9.86971 8.28811 10.4007 8.36111L10.3997 8.36011Z" fill="white"/>
</g>
<defs>
<clipPath id="clip0_111_55">
<rect width="24" height="24" fill="white" transform="translate(-0.000305176)"/>
</clipPath>
</defs>
</svg>
